<svg xmlns="http://www.w3.org/2000/svg" viewBox="0 0 112 84" fill="none">
  <rect width="112" height="84" fill="transparent"/>
  <path
    d="M11 42c0-11 7-20 19-25 12-5 27-7 42-5 15 1 25 6 30 14 5 8 5 18 0 28-5 10-14 17-28 20-14 3-30 2-43-2-13-5-20-15-20-30Z"
    fill="#fff"
  />
  <path
    d="M21 44c0-8 5-14 15-18 10-4 22-5 34-4 12 1 21 5 25 11 4 7 4 14 0 22-4 7-11 12-23 14-11 3-23 2-34-2-11-4-17-11-17-23Z"
    fill="#dcdcdc"
    opacity=".8"
  />
  <ellipse cx="28" cy="35" rx="10" ry="6" fill="#fff" opacity=".72"/>
  <ellipse cx="77" cy="31" rx="14" ry="7" fill="#fff" opacity=".65"/>
  <ellipse cx="88" cy="48" rx="10" ry="5" fill="#fff" opacity=".62"/>
  <ellipse cx="49" cy="55" rx="18" ry="8" fill="#fff" opacity=".56"/>
</svg>
