<svg xmlns="http://www.w3.org/2000/svg" viewBox="0 0 160 160" fill="none">
  <defs>
    <filter id="grain" x="0%" y="0%" width="100%" height="100%" color-interpolation-filters="sRGB">
      <feTurbulence type="fractalNoise" baseFrequency="0.9" numOctaves="2" seed="17" stitchTiles="stitch" result="noise"/>
      <feColorMatrix
        in="noise"
        type="matrix"
        values="1.5 0 0 0 -0.2
                0 1.5 0 0 -0.2
                0 0 1.5 0 -0.2
                0 0 0 1 0"
        result="contrast"
      />
      <feComponentTransfer in="contrast" result="grainMap">
        <feFuncR type="gamma" amplitude="1" exponent="0.9" offset="0"/>
        <feFuncG type="gamma" amplitude="1" exponent="0.9" offset="0"/>
        <feFuncB type="gamma" amplitude="1" exponent="0.9" offset="0"/>
      </feComponentTransfer>
    </filter>
  </defs>
  <rect width="160" height="160" fill="#e9e9e9" filter="url(#grain)"/>
  <g opacity=".3">
    <path d="M-12 20c26 8 49 10 74 4s48-6 82 4v12c-31-10-57-11-81-4-24 6-49 5-75-4V20Z" fill="#fff"/>
    <path d="M18 82c28 10 47 12 73 6 27-6 42-6 71 5v10c-30-11-48-12-73-5-26 6-46 4-71-6V82Z" fill="#fff"/>
    <path d="M-10 132c24 8 44 9 68 4 23-5 50-4 82 7v11c-30-11-57-13-82-7-24 5-46 4-68-4v-11Z" fill="#fff"/>
  </g>
</svg>
